<?xml version="1.0" standalone="no"?>
<!DOCTYPE svg PUBLIC "-//W3C//DTD SVG 20010904//EN"
 "http://www.w3.org/TR/2001/REC-SVG-20010904/DTD/svg10.dtd">
<svg version="1.0" xmlns="http://www.w3.org/2000/svg"
 width="310.000000pt" height="310.000000pt" viewBox="0 0 310.000000 310.000000"
 preserveAspectRatio="xMidYMid meet">
<metadata>
Created by potrace 1.11, written by Peter Selinger 2001-2013
</metadata>
<g transform="translate(0.000000,310.000000) scale(0.100000,-0.100000)"
fill="#000000" stroke="none">
<path d="M371 1550 l-2 -1550 637 0 c561 0 635 2 630 15 -7 20 30 20 77 0 43
-18 226 -21 192 -3 -27 14 -86 95 -88 122 -1 12 -14 34 -29 48 -15 14 -25 28
-21 31 3 4 -1 7 -10 7 -21 0 -22 29 -2 36 13 5 12 10 -5 34 -11 15 -20 33 -20
39 0 5 21 19 47 31 46 20 46 21 25 36 -18 12 -22 25 -22 65 0 42 5 54 37 89
27 31 33 44 25 52 -16 16 -15 91 0 106 7 7 11 31 9 54 -2 39 1 45 58 97 46 44
61 65 67 96 4 22 7 46 6 53 -5 21 20 13 50 -15 19 -18 28 -22 28 -12 0 8 -14
23 -30 34 -39 26 -38 39 3 30 17 -5 58 -7 90 -6 41 2 71 -4 100 -18 52 -24
138 -49 196 -55 24 -3 53 -14 65 -24 12 -11 32 -23 45 -27 48 -14 120 -67 150
-107 l31 -41 2 594 c2 327 2 676 0 776 l-3 182 -97 -7 c-53 -4 -124 -7 -157
-7 l-60 0 -6 395 c-3 217 -7 396 -8 398 0 1 -46 2 -100 2 l-100 0 -4 -27 -4
-28 -2 28 c0 15 -5 27 -11 27 -8 0 -15 -355 -15 -737 1 -81 -7 -75 -85 72 -74
138 -124 208 -183 253 -80 62 -123 83 -197 93 -36 5 -80 12 -97 15 -21 4 -33
2 -33 -5 0 -12 165 -178 202 -203 15 -10 29 -31 33 -48 4 -17 21 -51 39 -78
44 -64 49 -80 28 -90 -28 -14 -98 -14 -156 -1 -48 10 -58 10 -81 -5 -23 -15
-28 -15 -53 -2 -60 33 -104 48 -144 51 -70 5 -128 17 -128 26 0 5 -9 9 -19 9
-27 0 -53 38 -41 60 5 9 37 29 72 45 93 41 126 75 73 75 -36 0 -31 16 10 36
38 18 38 20 9 90 -8 18 -24 38 -35 45 -25 13 -129 3 -129 -12 0 -5 -10 -14
-22 -20 -13 -5 -37 -20 -55 -33 -18 -13 -68 -50 -113 -82 -44 -32 -80 -62 -80
-65 0 -4 -11 -21 -25 -37 -35 -42 -91 -143 -122 -221 -14 -36 -29 -68 -34 -71
-4 -3 -10 -22 -14 -43 -4 -21 -11 -35 -15 -30 -5 4 -16 112 -24 238 -27 390
-37 527 -42 603 l-6 72 -152 0 -153 0 -2 -1550z m1643 475 c25 -91 30 -206 17
-355 -7 -74 -15 -137 -17 -140 -3 -3 -11 3 -18 12 -17 23 -115 66 -138 60 -10
-2 -18 2 -18 10 -1 7 -32 47 -71 88 l-69 75 6 -37 c7 -44 -2 -47 -41 -16 -36
28 -137 38 -163 15 -9 -8 -27 -18 -39 -21 -30 -9 -32 18 -3 36 21 13 27 43 10
53 -13 8 -48 -11 -85 -46 -16 -15 -43 -39 -58 -53 -15 -14 -39 -26 -53 -26
-21 0 -24 3 -18 22 3 12 16 32 28 45 24 26 151 103 170 103 7 0 36 20 64 45
55 46 56 46 119 14 20 -10 44 -19 53 -19 9 0 31 -11 50 -25 18 -13 49 -30 68
-36 31 -10 36 -9 60 15 19 18 22 26 12 27 -8 1 10 9 40 18 l55 17 3 99 c3 108
12 113 36 20z m675 -332 c0 -150 -4 -209 -10 -188 -5 17 -7 47 -3 68 6 37 -10
54 -22 22 -4 -8 -14 -15 -23 -14 -12 0 -11 3 7 16 25 17 30 35 7 27 -11 -5
-13 -2 -9 10 3 9 12 16 20 16 8 0 14 7 14 15 0 18 -60 21 -77 4 -21 -21 -45
-6 -48 30 -2 18 -9 37 -16 42 -11 6 -10 9 4 15 9 3 17 14 17 24 0 25 16 34 24
14 4 -10 13 -13 27 -9 15 5 19 4 15 -4 -4 -6 -2 -11 3 -11 14 0 14 10 1 30 -9
13 -11 13 -20 0 -9 -13 -11 -13 -20 0 -5 8 -10 28 -10 44 0 25 3 27 25 22 18
-5 25 -2 25 9 0 12 -15 15 -67 17 -64 2 -62 2 27 8 52 3 98 7 103 8 4 1 7 -96
6 -215z m-269 187 c12 -8 11 -10 -7 -10 -13 0 -23 5 -23 10 0 13 11 13 30 0z
m-143 -6 c-3 -3 -12 -4 -19 -1 -8 3 -5 6 6 6 11 1 17 -2 13 -5z m86 -1 c-7 -2
-21 -2 -30 0 -10 3 -4 5 12 5 17 0 24 -2 18 -5z m163 -28 c9 -19 9 -27 -3 -36
-7 -7 -12 -18 -9 -26 3 -8 -1 -16 -10 -20 -19 -7 -74 -62 -74 -74 0 -5 -4 -9
-10 -9 -15 0 -12 21 7 42 11 12 12 18 4 18 -12 0 -41 24 -41 33 0 3 8 7 18 10
12 2 22 17 25 37 4 19 12 30 19 27 7 -2 11 -11 9 -18 -2 -8 -6 -22 -9 -32 -4
-15 0 -18 19 -15 22 3 24 7 21 46 -4 48 15 58 34 17z m-243 -12 c-7 -2 -19 -2
-25 0 -7 3 -2 5 12 5 14 0 19 -2 13 -5z m-545 -255 c-4 -41 -28 -50 -28 -10 0
16 3 32 7 35 15 16 24 5 21 -25z m867 1 c-4 -6 -19 -7 -36 -4 -22 5 -29 3 -29
-9 0 -9 -4 -16 -10 -16 -11 0 -14 23 -3 33 11 12 85 8 78 -4z m-939 -33 c10
-8 16 -18 11 -22 -4 -4 -13 -2 -19 4 -7 7 -26 12 -42 12 -24 0 -27 3 -16 10
21 14 43 12 66 -4z m394 -78 c0 -13 -32 -6 -37 9 -3 7 3 9 16 6 12 -3 21 -10
21 -15z m-1070 -547 c0 -13 -77 -74 -120 -96 -19 -10 -48 -28 -63 -41 -16 -13
-34 -24 -42 -24 -7 0 -27 -29 -44 -65 -18 -36 -33 -65 -36 -65 -7 0 14 52 53
130 40 80 47 86 187 146 59 26 65 27 65 15z m765 -841 c17 -34 18 -40 6 -40
-22 0 -65 22 -55 28 6 4 13 15 17 25 9 24 14 22 32 -13z"/>
<path d="M2630 1869 c0 -5 9 -9 19 -9 11 0 22 4 25 9 3 5 -6 9 -19 9 -14 0
-25 -4 -25 -9z"/>
<path d="M2616 1832 c-3 -5 0 -14 7 -20 15 -13 42 -11 42 3 0 6 -6 9 -14 7 -7
-2 -17 2 -21 8 -5 8 -10 8 -14 2z"/>
<path d="M2628 1713 c6 -2 18 -2 25 0 6 3 1 5 -13 5 -14 0 -19 -2 -12 -5z"/>
<path d="M2115 526 l-50 -12 33 -7 c19 -4 45 -16 60 -27 34 -27 49 -12 31 29
-8 17 -16 31 -19 30 -3 0 -27 -6 -55 -13z"/>
<path d="M2304 489 c-3 -5 0 -9 6 -9 6 0 1 -17 -12 -41 -18 -33 -20 -42 -9
-49 8 -4 11 -15 8 -24 -8 -19 2 -48 13 -41 12 7 23 -13 14 -26 -4 -8 -9 -7
-15 2 -14 22 -11 -7 6 -71 16 -58 18 -173 4 -164 -5 3 -9 11 -9 18 0 21 -35
46 -64 46 -35 0 -66 17 -66 36 0 16 -95 114 -110 114 -6 0 -9 6 -7 13 1 8 -11
12 -38 12 -32 0 -39 -3 -37 -17 4 -26 -16 -31 -28 -7 -9 15 -15 18 -23 10 -8
-8 -8 -14 1 -23 19 -19 14 -30 -8 -18 -16 9 -20 8 -20 -5 0 -8 9 -15 20 -15
21 0 28 -24 10 -35 -18 -11 -10 -52 15 -79 13 -14 22 -32 19 -40 -3 -8 9 -22
30 -34 20 -12 36 -26 36 -32 0 -6 24 -10 55 -10 52 0 54 1 43 19 -7 11 -18 17
-27 13 -13 -4 -12 -1 3 16 12 14 16 27 11 39 -11 25 -6 55 11 73 12 12 14 12
14 -2 0 -9 12 -44 27 -78 22 -52 24 -63 12 -71 -9 -5 22 -9 84 -9 63 0 97 4
97 11 0 6 8 18 18 27 27 25 56 126 42 151 -6 12 -16 18 -25 15 -9 -4 -16 0
-17 7 -5 52 -18 79 -36 79 -16 1 -15 2 1 14 15 12 16 24 11 99 -6 80 -8 86
-31 90 -13 2 -26 0 -29 -4z"/>
<path d="M2645 480 c-11 -18 -85 -61 -95 -55 -4 3 -18 -7 -30 -22 -19 -25 -20
-29 -5 -39 9 -7 17 -32 20 -65 16 -193 17 -239 7 -239 -6 0 -13 13 -17 30 -4
16 -11 32 -16 35 -5 3 -3 14 3 25 15 23 9 31 -18 24 -28 -7 -53 -57 -60 -120
l-7 -54 142 0 142 0 -2 225 c-1 205 -3 226 -21 245 -21 22 -34 25 -43 10z
m-130 -400 c3 -5 2 -10 -4 -10 -5 0 -13 5 -16 10 -3 6 -2 10 4 10 5 0 13 -4
16 -10z"/>
<path d="M1804 325 c-19 -15 -19 -15 1 -30 17 -13 18 -17 5 -25 -8 -5 -12 -12
-8 -15 9 -9 78 55 78 72 0 18 -51 17 -76 -2z"/>
<path d="M1760 301 c0 -5 7 -12 16 -15 14 -5 15 -4 4 9 -14 17 -20 19 -20 6z"/>
</g>
</svg>
