<?xml version="1.0" standalone="no"?>
<!DOCTYPE svg PUBLIC "-//W3C//DTD SVG 20010904//EN"
 "http://www.w3.org/TR/2001/REC-SVG-20010904/DTD/svg10.dtd">
<svg version="1.0" xmlns="http://www.w3.org/2000/svg"
 width="96.000000pt" height="96.000000pt" viewBox="0 0 96.000000 96.000000"
 preserveAspectRatio="xMidYMid meet">
<metadata>
Created by potrace 1.11, written by Peter Selinger 2001-2013
</metadata>
<g transform="translate(0.000000,96.000000) scale(0.100000,-0.100000)"
fill="#000000" stroke="none">
<path d="M112 808 c-17 -17 -17 -519 0 -536 8 -8 56 -12 150 -12 l138 0 0 -30
c0 -28 -1 -29 -57 -32 l-58 -3 0 -35 0 -35 195 0 195 0 0 35 0 35 -57 3 c-57
3 -58 4 -58 32 l0 30 138 0 c94 0 142 4 150 12 17 17 17 519 0 536 -17 17
-719 17 -736 0z"/>
</g>
</svg>
